<?xml version="1.0" encoding="UTF-8"?>
<svg width="368px" height="366px" viewBox="0 0 368 366" version="1.1" xmlns="http://www.w3.org/2000/svg" xmlns:xlink="http://www.w3.org/1999/xlink">
    <!-- Generator: Sketch 62 (91390) - https://sketch.com -->
    <title>icon</title>
    <desc>Created with Sketch.</desc>
    <defs>
        <filter x="-23.3%" y="-23.6%" width="146.7%" height="147.2%" filterUnits="objectBoundingBox" id="filter-1">
            <feOffset dx="0" dy="20" in="SourceAlpha" result="shadowOffsetOuter1"></feOffset>
            <feGaussianBlur stdDeviation="10" in="shadowOffsetOuter1" result="shadowBlurOuter1"></feGaussianBlur>
            <feColorMatrix values="0 0 0 0 1   0 0 0 0 1   0 0 0 0 1  0 0 0 0.15 0" type="matrix" in="shadowBlurOuter1" result="shadowMatrixOuter1"></feColorMatrix>
            <feMerge>
                <feMergeNode in="shadowMatrixOuter1"></feMergeNode>
                <feMergeNode in="SourceGraphic"></feMergeNode>
            </feMerge>
        </filter>
    </defs>
    <g id="Page-1" stroke="none" stroke-width="1" fill="none" fill-rule="evenodd">
        <g id="1-FlashScreen" transform="translate(-190.000000, -95.000000)" fill-rule="nonzero">
            <g id="icon" filter="url(#filter-1)" transform="translate(210.000000, 95.000000)">
                <path d="M168.886088,264.866228 C168.956927,264.959115 169.032992,265.047896 169.113912,265.132139 C169.089749,265.145952 169.020711,265.073431 168.886088,264.866228 Z" id="Path" fill="#FFFFFF"></path>
                <path d="M169.113912,265.167305 C169.037971,265.108597 168.962029,265.042983 168.886088,264.977368 C168.972385,264.991182 168.81705,264.538788 169.113912,265.167305 Z" id="Path" fill="#FFFFFF"></path>
                <path d="M172,265 C171.21614,266.170137 169.923863,266.334421 169,265.381382 C169,265.381382 170.712247,266.545339 172,265 Z" id="Path" fill="#FFFFFF"></path>
                <path d="M300,161.951144 C279.784506,169.449187 258.950416,175.146341 237.73908,178.976607 C232.920398,202.824338 217.114626,222.964046 195.142406,233.253272 C190.936519,238.948031 187.15122,244.172264 183.910619,248.739143 C182.81433,250.261436 181.793886,251.704155 180.807915,253.063839 C180.102337,254.060249 179.434682,255.008222 178.804948,255.907759 C178.460203,256.405964 178.115458,256.89379 177.770713,257.360857 C175.702244,260.30857 174.040574,262.709641 172.840862,264.453358 C172.702059,264.652 172.542578,264.835246 172.365114,265 C172.42372,264.934265 172.47888,264.865069 172.537486,264.788955 L172.575408,264.750898 C173.795805,262.979502 175.550556,260.4435 177.774161,257.277823 C178.098221,256.807296 178.432623,256.329849 178.808395,255.824725 C179.084191,255.440692 179.353092,255.049739 179.628888,254.648408 C172.285823,264.494876 165.839094,259.768848 164.804859,258.993862 C164.756595,258.955805 164.663514,258.858932 164.518721,258.727461 L164.498036,258.706702 C163.119057,257.347018 157.87204,251.683396 152.625024,245.988636 C152.602158,245.960952 152.576766,245.935469 152.54918,245.912522 C152.273384,245.64612 151.987246,245.36588 151.701107,245.109858 C151.273624,244.680848 150.83235,244.248379 150.377287,243.836668 C149.922224,243.424957 149.470608,242.964809 148.998308,242.515041 C147.502115,241.089621 145.947316,239.648055 144.33391,238.190345 C122.055061,232.601772 103.452642,217.271738 93.6564169,196.42762 C81.4490018,187.030921 70.320638,178.78286 62.5707737,173.126158 C50.527015,170.035745 38.6536695,166.311355 27,161.968442 C27.5446969,86.787927 88.4404273,26 163.487934,26 C238.535441,26 299.455303,86.7706283 300,161.951144 Z" id="Path" fill="#FFFFFF"></path>
                <path d="M310.518011,107.419836 C310.480084,107.306048 310.431813,107.181916 310.383542,107.075024 C300.815841,82.4146141 285.224613,60.5432599 265.032862,43.457148 C264.812194,43.2675012 264.58463,43.0744063 264.343275,42.8951039 C235.960876,19.0278265 200.056933,5.96002899 162.974006,6.00009184 C75.8722897,5.97259912 5,76.8591189 5,163.9863 C5,251.11348 75.8722897,322 162.994694,322 C250.117098,322 320.999867,251.116928 320.999867,163.9863 C321.025104,144.645616 317.471364,125.467225 310.518011,107.419836 Z M162.994694,300.694046 C87.1401391,300.694046 25.6772621,239.214007 25.6772621,163.37943 C25.6772621,87.5448531 87.1539308,26.0613657 162.994694,26.0613657 C163.194674,26.0613657 163.415342,26.0613657 163.625666,26.0820545 C237.961666,26.3519859 298.556288,85.7862901 300.267303,160.107161 C300.294886,161.19332 300.30523,162.300167 300.30523,163.389774 C300.30523,239.210558 238.828561,300.694046 162.994694,300.694046 Z" id="Shape" fill="#FFFFFF"></path>
                <polygon id="Path" fill="#FF3333" points="212 107.037844 215.198946 104 242 134.963303 241.312793 179 235.815141 178.311927"></polygon>
                <path d="M94.0881365,128.457798 C93.3055163,128.095598 92.7332037,127.819636 92.3643034,127.647159 L91.6747702,127.264262 C91.8747348,127.388445 92.0850424,127.502279 92.2746641,127.609214 C92.1402051,127.543674 92.0540134,127.505729 92.0091938,127.485032 C92.1608911,127.581618 92.8469767,128.019708 93.9260962,128.695815 C94.0984795,128.809649 94.2881011,128.916585 94.4777228,129.040767 C94.5363331,128.937282 94.5811528,128.830346 94.6397631,128.726861 L94.0881365,128.457798 Z M238.54535,173.70522 C238.335042,175.260956 238.076467,176.785646 237.783416,178.303437 C237.76273,178.379326 237.755835,178.465565 237.735149,178.541454 C258.947824,174.722515 279.78323,169.04221 300,161.566341 C299.455269,86.6081579 238.555693,26 163.503448,26 C88.4512023,26 27.5481789,86.6081579 27,161.566341 C38.6544053,165.89641 50.5285006,169.609785 62.5730198,172.691059 C55.6776874,167.661652 51.4232673,164.657115 51.4232673,164.657115 L51.488773,164.61917 L62.5213048,158.168558 L89.2614038,142.569805 C89.2614038,142.569805 89.2614038,142.549108 89.2614038,142.542209 C89.8337164,140.509289 90.488773,138.512014 91.2265736,136.550384 C92.1797763,133.992837 93.272018,131.489345 94.4984088,129.051116 C94.5570191,128.94763 94.6018388,128.840695 94.6604491,128.737209 C95.6234972,126.837671 96.657797,124.989875 97.7633487,123.193822 C109.539547,104.095983 129.107315,91.1393106 151.279287,87.7585863 C173.451259,84.3778621 195.988118,90.914531 212.9154,105.635739 L212.953324,105.663335 C228.540297,119.188173 237.98183,138.457293 239.12111,159.068884 C239.196959,160.462493 239.234883,161.865299 239.234883,163.277305 C239.234883,164.62262 239.196959,165.957586 239.138349,167.285653 C239.024576,169.448506 238.834954,171.601009 238.54535,173.70522 Z M169.464463,264.569163 C170.357372,265.232907 171.606352,265.118492 172.36395,264.30355 C171.105552,265.379802 169.464463,264.569163 169.464463,264.569163 Z M160.972861,253.979121 C160.686704,253.665214 160.400548,253.340959 160.104049,253.033951 C158.06303,250.809007 155.804809,248.484027 153.353518,246.086607 L152.608822,245.34151 C157.852723,251.019428 163.106966,256.666301 164.482585,258.021964 C163.737889,257.125088 162.965612,256.207514 162.145067,255.283041 C161.779615,254.8553 161.386581,254.417211 160.972861,253.979121 Z" id="Shape" fill="#0066FF"></path>
                <path d="M315.012878,104.280746 L315.012878,104.280746 C290.664225,41.510066 230.304227,0.107744216 162.983106,0 C73.1166945,0 0,73.117855 0,162.990733 C0,250.067074 68.6371996,321.418513 154.649724,325.770602 C254.819665,330.838244 332.692366,251.297688 325.54453,151.251501 C324.401242,135.156124 320.851223,119.323178 315.012878,104.280746 Z M163.408243,316.872845 C78.5570688,316.890129 9.51892676,247.851277 9.51892676,162.990733 C9.51892676,78.130189 78.5570688,9.08442336 163.408243,9.08442336 C248.395706,9.08824153 317.28719,77.9938842 317.28719,162.990733 C317.290646,247.851277 248.252504,316.890129 163.408243,316.890129 L163.408243,316.872845 Z" id="Shape" fill="#0066FF"></path>
                <polygon id="Path" fill="#0066FF" points="191.71831 231 197 235.153846 179.394366 258 172 250.730769"></polygon>
                <path d="M300.955116,160.227013 C299.18243,85.8354761 238.541353,26.3565166 164.126656,26.0207151 C163.916044,26 163.698527,26 163.494821,26 C87.5503647,26.0207151 26,87.5791192 26,163.510358 C26,239.441596 87.5607227,301 163.505179,301 C239.449635,301 301,239.441596 301,163.510358 C300.993095,162.422814 300.982737,161.314556 300.955116,160.227013 Z M237.86487,179.353965 C233.03892,203.151803 217.209307,223.249376 195.203945,233.517074 C190.991714,239.19992 187.200706,244.413223 183.955216,248.970547 C182.857274,250.489655 181.83529,251.929355 180.847832,253.286195 L179.760248,254.815661 C177.478845,253.290001 174.791515,252.485276 172.047031,252.505926 C168.024696,252.505926 164.451205,254.100989 162.276036,256.566087 C159.928235,254.073369 156.278786,250.147856 152.629336,246.208532 C152.606436,246.180905 152.581006,246.155476 152.553378,246.132577 C152.277166,245.866733 151.990596,245.587079 151.704026,245.331592 C151.275898,244.90348 150.833959,244.471915 150.378209,244.061066 C149.92246,243.650216 149.470163,243.191031 148.99715,242.742204 C147.498701,241.319766 145.941556,239.881217 144.325717,238.426556 C122.013263,232.849676 103.382785,217.551714 93.5717837,196.751205 C81.3459554,187.374165 70.200806,179.143361 62.4392522,173.498493 C50.3773272,170.414546 38.4860724,166.697948 26.814825,162.364121 C27.3603435,87.3408954 88.3479265,26.6801461 163.508632,26.6801461 C238.669337,26.6801461 299.65692,87.3305378 300.202438,162.364121 C279.962046,169.845503 259.102349,175.530726 237.86487,179.353965 Z" id="Shape" fill="#0066FF"></path>
                <path d="M330,97.525407 C325.371606,98.9309324 320.401772,101.26887 315.193967,104.394179 C313.83051,105.206874 312.450959,106.075974 311.055313,107.00148 C309.851655,107.795757 308.641098,108.614208 307.420196,109.48446 C303.050467,112.568328 298.549681,116.104588 293.969571,120 C285.854579,95.3801668 270.959575,73.5561637 251,57.0414406 C254.807561,52.7914817 258.486365,48.8592337 262.03641,45.2446966 C262.998647,44.2604835 263.953986,43.3038974 264.888632,42.3680316 C266.119881,41.1455353 267.320091,39.9713863 268.513403,38.8248643 C292.027853,16.1672422 307.972016,8 307.972016,8 C301.374312,41.2905772 330,97.525407 330,97.525407 Z" id="Path" fill="#FF3333"></path>
                <path d="M239,163.877265 C239,165.226547 238.962044,166.56545 238.903384,167.897433 C238.789516,170.042445 238.589384,172.166698 238.302988,174.252896 C238.092504,175.813219 237.833713,177.342405 237.540416,178.864671 L237.233316,179.227939 C221.226195,198.366981 206.450921,217.668629 194.857059,233.382571 C192.441671,236.634686 190.181558,239.744953 188.069819,242.654558 L187.379708,243.592136 C187.26584,243.744363 187.158872,243.88967 187.065707,244.031517 C186.972542,244.173365 186.800015,244.394785 186.675795,244.578149 L186.448058,244.892982 C185.454299,246.27686 184.503096,247.600771 183.59445,248.864714 C182.497173,250.377754 181.470058,251.819294 180.513105,253.189334 C180.247412,253.573361 179.961016,253.964306 179.67462,254.365631 C179.560752,254.528237 179.446883,254.690843 179.329565,254.843069 C171.979884,264.689366 165.527347,259.96342 164.492181,259.188448 C163.681301,258.174757 162.794508,257.140308 161.849057,256.074721 C161.476397,255.652638 161.086484,255.202878 160.665516,254.763496 C160.399824,254.455583 160.113428,254.140751 159.795977,253.815539 C157.7636,251.594414 155.500037,249.2522 153.046693,246.84771 C152.618824,246.418708 152.170252,245.986246 151.72168,245.557244 L151.376624,245.211274 C150.948756,244.782272 150.507085,244.360189 150.051611,243.938106 C149.596138,243.516023 149.144116,243.066262 148.67139,242.62688 C147.173849,241.201485 145.617649,239.759945 144.00279,238.30226 C128.989428,224.626079 110.118347,209.479527 93.2796417,196.540261 C81.1474928,187.19908 70.0850158,179.016898 62.3281697,173.360294 C55.8480288,168.634348 51.665957,165.64863 51.0759122,165.226547 L51,165.178111 L62.1107848,158.680801 L88.880185,143.036053 L88.880185,143.036053 C89.8394391,145.852246 90.8366493,149.062844 91.8442111,152.723203 C92.7612753,156.112922 93.9522041,159.422109 95.4051832,162.617936 C99.7390794,172.052528 110.152852,175.920469 119.162249,173.135414 L119.162249,173.135414 L119.162249,173.135414 C120.037917,172.875499 120.892656,172.549351 121.71911,172.159779 C121.71911,172.132102 121.746715,172.073287 121.822627,171.997173 C125.028192,170.751683 128.540856,168.537477 131.829234,165.517162 C132.077674,165.288822 132.315762,165.057022 132.553851,164.825222 C132.61251,164.96707 132.678071,165.112377 132.743631,165.264604 C133.471283,166.864449 134.391361,168.369055 135.483371,169.744911 C135.481252,169.751667 135.481252,169.758913 135.483371,169.765669 C137.288011,172.664895 140.445268,175.353079 144.475516,177.096766 C146.569315,178.016897 148.794578,178.600664 151.069525,178.826615 C153.169283,179.138975 155.301576,179.164579 157.408193,178.902728 L160.731077,185.773685 L168.977902,202.864587 C170.371926,197.036151 171.962631,191.301127 173.750018,185.659515 C174.543646,183.123558 175.371779,180.597979 176.241319,178.100078 C185.385287,151.827142 198.34902,127.588507 212.682622,106 L212.682622,106 C228.304514,119.584506 237.756204,138.946259 238.872329,159.649516 C238.957443,161.051846 239,162.461096 239,163.877265 Z" id="Path" fill="#FF3333"></path>
                <path d="M196.975935,119.010314 C196.975935,119.010314 189.581071,121.224319 181.288922,151.326544 C180.271431,155.095639 178.946857,158.775036 177.328492,162.327814 C174.174554,169.232082 167.633021,173.978445 160.090998,174.834883 C155.960873,175.341167 151.77157,174.677688 148,172.919975 C148.106574,172.555557 148.240651,172.132696 148.398793,171.634201 C148.53287,171.218216 148.673823,170.740348 148.831965,170.259042 C148.990107,169.777737 149.175752,169.286118 149.382025,168.74293 C149.588297,168.199742 149.791132,167.625613 150.000842,167.023981 C150.210552,166.422349 150.523399,165.776025 150.798428,165.102197 C151.073458,164.428369 151.355364,163.727038 151.675086,163.022269 C151.994808,162.317501 152.36266,161.578353 152.706448,160.825453 C152.802708,160.629493 152.902407,160.426657 152.998667,160.223821 C153.094927,160.020985 153.167123,159.859404 153.256507,159.684072 C153.459342,159.302465 153.665614,158.920858 153.868449,158.532376 C154.284431,157.762287 154.693538,156.964695 155.1439,156.167103 C156.082439,154.599422 157.014102,152.952669 158.110784,151.354047 C159.142146,149.714171 160.335087,148.163679 161.486775,146.571933 C162.727847,145.048945 163.931102,143.477826 165.268435,142.054536 C166.533572,140.565927 167.898407,139.228585 169.191047,137.891243 C169.854557,137.244919 170.538694,136.626097 171.191889,136.014152 C171.535677,135.711617 171.838209,135.402206 172.157932,135.103109 L173.151477,134.260824 C173.808111,133.710761 174.437241,133.171011 175.056058,132.648451 C175.674875,132.12589 176.304006,131.675526 176.898758,131.214848 C177.49351,130.754169 178.050446,130.303805 178.617695,129.905009 C179.184944,129.506213 179.7075,129.141796 180.212867,128.798006 C180.718235,128.454216 181.17891,128.110427 181.612082,127.814768 C182.045254,127.519108 182.47155,127.275018 182.84284,127.034365 C184.242054,126.164577 185.07402,125.635141 185.173718,125.573259 L184.829931,125.731402 C187.212376,124.39406 190.083,122.771373 192.651091,121.327456 C193.163334,121.035235 193.682453,120.753327 194.146566,120.485171 L194.854767,120.086375 C195.325756,119.821657 195.758928,119.574129 196.174911,119.34379 L196.769663,119 L197,119 L196.975935,119.010314 Z" id="Path" fill="#33CC66"></path>
                <path d="M197,118.004075 L196.401451,118.351727 L195.072879,119.102657 L194.360156,119.505934 L192.848214,120.35073 L184.890625,124.845879 L182.814732,125.822783 C182.413393,126.020945 181.967076,126.21563 181.486161,126.46594 C181.005246,126.71625 180.507031,126.983942 179.960379,127.279447 C179.413728,127.574952 178.829018,127.880886 178.230469,128.211156 C177.63192,128.541426 176.998772,128.93775 176.341406,129.320168 C175.68404,129.702586 174.985156,130.10934 174.289732,130.557811 L172.151563,131.972758 L171.051339,132.720211 L169.933817,133.519812 C169.193415,134.065626 168.418415,134.621871 167.650335,135.202451 C166.152232,136.419235 164.567634,137.636019 163.076451,139.02663 C161.526451,140.351186 160.080246,141.839139 158.578683,143.281898 C157.160156,144.804616 155.707031,146.299523 154.426897,147.895248 C153.063728,149.435349 151.870089,151.06584 150.666071,152.623324 C150.444643,152.918829 150.230134,153.224763 150.026004,153.520268 C149.680022,154.013935 149.33404,154.504125 148.988058,154.990838 C148.721652,155.376733 148.451786,155.76958 148.185379,156.145045 C147.918973,156.52051 147.694085,156.923787 147.455357,157.299252 C146.974442,158.071041 146.500446,158.811541 146.04721,159.538135 C145.593973,160.264729 145.216853,160.987846 144.825893,161.669246 C144.434933,162.350645 144.050893,163.011185 143.71183,163.657819 L142.774219,165.52819 C142.480134,166.119199 142.203348,166.665014 141.943862,167.176063 C141.802009,167.471568 141.684375,167.739261 141.570201,168 C141.456027,167.892228 141.348772,167.784455 141.224219,167.676683 C141.044308,167.488951 140.878237,167.301218 140.687946,167.120439 C139.185846,165.525588 137.964436,163.685802 137.075893,161.679675 C135.866943,159.021643 135.162898,156.16003 135,153.242146 C135.077389,151.737774 135.264724,150.241153 135.560491,148.76438 C135.820661,147.490463 136.167456,146.235971 136.598438,145.009731 C136.912741,144.110921 137.273042,143.229026 137.677902,142.367571 C138.73496,140.144296 140.077253,138.069708 141.670536,136.196737 C157.052902,117.976263 193.813504,117.95888 197,118.004075 Z" id="Path" fill="#33CC66"></path>
                <path d="M128.341273,152.055073 C128.503844,154.926655 129.206479,157.742858 130.413008,160.358711 C129.936849,161.04419 129.40445,161.689593 128.821225,162.288357 C128.679656,162.428633 128.527729,162.579173 128.375802,162.736555 C128.286026,162.832353 128.196251,162.914466 128.09957,163 C128.009795,162.79814 127.902755,162.575751 127.795716,162.315728 C127.581636,161.901744 127.350292,161.443282 127.105137,160.967713 L126.32133,159.434944 C126.038193,158.897791 125.72398,158.36748 125.406314,157.802956 C125.088648,157.238432 124.746811,156.646537 124.370446,156.047799 C123.994081,155.449061 123.603904,154.850323 123.203368,154.21395 C122.999648,153.906028 122.792474,153.587842 122.588753,153.269655 C122.385033,152.951469 122.153689,152.643547 121.922345,152.318518 C121.470016,151.682145 121.024593,151.032087 120.541188,150.378607 C119.536396,149.099019 118.53851,147.761268 117.409414,146.498786 C116.332112,145.195248 115.123599,143.970402 113.956522,142.735291 C112.710027,141.544658 111.508421,140.34034 110.220492,139.252348 C108.984356,138.116457 107.658445,137.110577 106.42231,136.114962 C105.780072,135.639393 105.141287,135.180931 104.519766,134.746418 C104.209006,134.527451 103.905151,134.305063 103.604749,134.062147 C103.383764,133.921871 103.159326,133.771331 102.945247,133.637898 C102.855472,133.576314 102.765697,133.514729 102.679374,133.459987 C102.064759,133.06311 101.470862,132.666232 100.901135,132.296725 C100.331407,131.927219 99.7444155,131.612454 99.2023113,131.270318 C98.6602072,130.928182 98.1353675,130.633945 97.6277923,130.353394 L96.1775773,129.593852 C95.7252484,129.347514 95.2970897,129.125126 94.9069128,128.90958 C94.516736,128.694035 94.1403707,128.584551 93.7950814,128.427169 C93.0112748,128.064505 92.4346417,127.790796 92.0686351,127.626571 L91.3780565,127.2468 L88.1047143,125.423215 L86.7788035,124.684202 L84.8175604,123.585946 L83.609048,122.901674 C83.0220562,122.559538 82.4799521,122.275565 82,122.001857 C83.8956381,121.98475 100.006835,121.974486 113.714819,127.404182 C120.965894,130.278124 127.52639,134.657463 131,141.349641 C130.592182,142.195774 130.232518,143.063878 129.922697,143.949874 C129.492579,145.156655 129.146478,146.39124 128.88683,147.644941 C128.596126,149.099747 128.413782,150.573766 128.341273,152.055073 Z" id="Path" fill="#33CC66"></path>
                <path d="M123,167.258174 C114.12421,171.415703 102.881773,168.006529 98.4490604,158.357596 C97.0942693,155.376522 95.9838597,152.289745 95.1288447,149.12788 C94.1856409,145.701383 93.2597118,142.701033 92.3648774,140.07486 C86.6331002,123.382379 82,122 82,122 L82.1865678,122 C82.6668071,122.277169 83.2230555,122.57859 83.7965787,122.911192 C84.1800792,123.132927 84.5877644,123.358126 85.0058144,123.604113 L86.9544114,124.702394 C87.4001011,124.951846 87.8457908,125.211692 88.2983905,125.461143 C89.4108873,126.095167 90.5337491,126.72919 91.5736918,127.307779 C91.7775343,127.432505 91.9848319,127.539908 92.1783096,127.65424 L91.9122777,127.529514 L93.83669,128.752521 C94.1476363,128.950004 94.5034971,129.154415 94.8731777,129.403867 C95.2428583,129.653319 95.6298138,129.940881 96.0478638,130.224979 L97.381478,131.163888 C97.8444426,131.510349 98.317772,131.877597 98.8152861,132.262169 C99.3128002,132.64674 99.8310441,133.031312 100.356198,133.457459 C100.801888,133.831636 101.247577,134.216208 101.717452,134.618102 C101.790006,134.680465 101.86947,134.753222 101.948934,134.815585 C102.214966,135.047714 102.491363,135.290236 102.778124,135.529294 L103.586585,136.288043 C104.139378,136.80427 104.699081,137.327426 105.258785,137.867904 C106.336732,138.993902 107.483779,140.116435 108.544451,141.356765 C109.605123,142.597094 110.655431,143.875535 111.695374,145.167833 C112.655852,146.505172 113.661245,147.811329 114.524985,149.183314 C115.440549,150.513723 116.217915,151.896102 117.009101,153.209188 C117.382236,153.90211 117.720822,154.546527 118.069773,155.208267 C118.249431,155.530476 118.415269,155.842291 118.584562,156.164499 C118.753855,156.486708 118.895509,156.815845 119.037162,157.12766 C119.341198,157.761683 119.63487,158.378384 119.911267,158.967367 C120.187663,159.55635 120.419146,160.162657 120.657538,160.699671 C120.89593,161.236685 121.120502,161.804881 121.317435,162.314178 C121.514368,162.823476 121.662931,163.31545 121.832224,163.75892 C122.001517,164.20239 122.153535,164.632001 122.295188,165.026966 C122.436842,165.421932 122.55431,165.837684 122.661414,166.18761 C122.796157,166.589504 122.903261,166.946359 123,167.258174 Z" id="Path" fill="#33CC66"></path>
                <path d="M145.996573,115.031871 C145.984876,121.504585 140.838126,126.800719 134.366036,127 C134.253151,127 134.126583,127 134.003436,127 C130.233441,127.006468 126.682154,125.231492 124.425346,122.212738 C124.215763,121.948297 124.021598,121.672003 123.843819,121.385229 C121.126305,117.068664 121.436455,111.506343 124.61702,107.518402 C127.797586,103.530462 133.153044,101.98898 137.96814,103.675501 C142.783235,105.362021 146.005007,109.907736 146,115.007935 L145.996573,115.031871 Z" id="Path" fill="#33CC66"></path>
                <path d="M300,161.449168 C279.78323,168.918765 258.947824,174.594306 237.735149,178.410041 C237.649712,178.427378 237.563392,178.440035 237.476574,178.447954 C216.534144,182.221297 195.330758,184.366927 174.056754,184.865581 C170.556223,184.950598 167.037306,184.995404 163.5,185 C162.679455,185 161.858911,185 161.048709,184.97932 C126.372083,184.796649 93.2262199,180.422873 62.7350601,172.605913 C62.6800836,172.597815 62.6258812,172.585133 62.5730198,172.568001 C50.5285006,169.489311 38.6544053,165.779051 27,161.452614 C27.5447313,86.5573138 88.4443069,26 163.496552,26 C238.548798,26 299.455269,86.5538672 300,161.449168 Z" id="Path" fill="#FFFFFF" opacity="0.12"></path>
                <path d="M74.7340601,77.9437156 C78.159906,74.1417708 78.0845374,73.0827816 78.5024906,72.6314092 C79.9584751,71.0168847 83.3158041,72.8744559 84.5491087,74.0202475 C85.4740871,74.874383 86.231199,76.2562771 85.2342779,77.3604036 C83.2130288,79.6033774 82.1510165,75.2979787 77.3068704,80.6901434 C74.4702699,83.8393342 75.3096022,84.0441878 78.5298974,87.0232459 C80.1537483,88.5266634 80.2873563,88.4954145 81.8461162,86.7628388 C83.7885709,84.6066673 79.2253441,83.3497687 81.0410424,81.3359532 C82.5244337,79.6901798 85.7892649,82.5025773 86.8649805,83.5129572 C88.0126389,84.5754185 91.1952498,87.8843257 89.6604708,89.5856526 C88.0743041,91.3460051 86.721095,86.8635295 84.1380072,89.7280085 C83.0657174,90.9189373 84.1380072,91.8772357 85.0492822,92.7070666 C89.1363164,96.4881789 89.1945558,96.022918 91.880419,93.0542762 C97.1219633,87.2385159 91.6919975,85.2316445 93.7886152,82.9053404 C94.6073924,81.9991234 96.0222667,82.4782726 96.8067854,83.2039407 C98.6978524,84.9469327 100.75336,89.6412061 99.7256062,90.7731093 C99.5474622,90.9710188 99.040437,91.3460051 98.4340623,91.8668195 C97.8139842,92.4397153 97.0157621,93.154967 96.1455972,94.1202096 L85.6385277,105.779507 C83.9530115,107.650967 83.0862725,106.900994 82.7231328,106.564201 C81.184928,105.140641 84.1551364,104.352476 81.3527944,101.404666 C76.5566101,96.349295 77.0944679,96.7867791 71.7604258,92.3772175 C67.3068261,88.6134658 67.5671904,92.8147016 65.5939031,90.9883792 C63.8809801,89.4085757 66.3133307,87.2836531 67.3616396,86.1274452 L74.7340601,77.9437156 Z" id="Path" fill="#FFFFFF"></path>
                <path d="M98.1419548,76.0979736 C96.9908383,73.9218189 96.2280503,73.5422976 95.714902,73.4169511 C95.0769338,73.2776772 94.619261,73.5631887 94.1511865,72.6787994 C92.8197747,70.1614237 100.718098,64.7297416 100.787442,64.6914413 C101.633444,64.2388011 102.098051,64.9525799 102.475978,65.6663586 C102.690945,66.0737348 103.169421,67.3063088 103.862865,66.9233055 C104.209587,66.7422495 104.348276,65.7046589 104.882227,64.4163754 C105.58356,62.7759498 106.836534,61.4351201 108.422257,60.6281253 C112.454632,58.4798254 114.087692,61.4881416 114.801939,61.1086203 C115.072382,60.9658645 115.287349,59.8899737 115.842104,58.5842809 C116.522557,57.0260099 117.691368,55.7336706 119.170634,54.9039681 C122.388212,53.1874173 125.324946,53.8907505 127.086293,57.2263603 L130.882897,64.4059298 C131.923063,66.3801373 133.268343,65.8822331 133.791893,66.867596 C134.925674,69.0089322 131.118668,71.1711594 129.794191,71.8779745 C128.674279,72.4733704 124.621101,74.3152677 123.684952,72.574344 C123.019246,71.3139152 124.222371,70.7150374 123.178738,68.7443118 L121.559547,65.6837678 C120.803694,64.2562104 119.479216,61.3070856 117.530639,62.3377124 C115.582063,63.3683393 117.027893,65.5723487 117.690132,66.8327775 L118.806576,68.9427771 C121.018661,73.120994 121.861195,71.7630735 122.526901,73.0235023 C123.643345,75.1335019 119.593634,77.3340295 118.366239,77.9851349 C113.248625,80.7114215 112.471968,79.9036329 112.003894,78.9321974 C111.085081,77.1111912 113.532937,77.6369502 111.293114,73.6432711 L110.252948,71.7038821 C109.604578,70.4817536 108.172617,67.3271998 106.224041,68.3578267 C104.275464,69.3884535 105.721294,71.592463 106.383533,72.8494099 L107.839764,75.6070331 C109.493627,78.7406958 110.301489,78.0443263 110.960261,79.2699366 C111.428335,80.1543259 111.279245,81.7594576 106.63664,84.2350511 C105.315629,84.9314206 101.335263,87.1040934 100.395647,85.3004965 C99.5843176,83.7684836 102.04951,83.5003813 99.8027524,79.2490456 L98.1419548,76.0979736 Z" id="Path" fill="#FFFFFF"></path>
                <path d="M135.763948,49.8283324 C134.226849,50.1683433 132.425668,49.8283324 132.0397,48.0092744 C131.525077,45.581597 136.149915,43.5517323 138.01881,43.1505195 C139.484809,42.8377095 141.675343,42.8649104 142.081625,44.704369 C142.674119,47.5774607 137.852912,49.3829182 135.763948,49.8283324 Z M145.795715,61.3274991 C146.720005,65.6694376 148.544887,63.6225723 148.957939,65.5742345 C149.489491,68.0767143 144.837568,69.0729461 143.202285,69.4299575 C136.901536,70.7900009 136.339513,69.4027566 136.149915,68.5187284 C135.868904,67.1926862 137.355217,66.7982736 137.551586,65.5640342 C137.754727,64.1733899 136.691624,58.8216192 136.000945,57.5465786 C135.398294,56.3293397 133.63097,57.1351654 133.261931,55.4793126 C132.706679,52.8646293 141.776914,49.7671305 142.145953,49.6991283 C143.246299,49.4645208 143.459596,50.3009475 143.625495,51.0591717 L145.795715,61.3274991 Z" id="Shape" fill="#FFFFFF"></path>
                <path d="M161.504713,47.3430914 C162.180342,47.435551 162.781651,47.5691038 163.045147,47.5588305 C163.400786,47.538169 163.747224,47.4363252 164.05859,47.2609051 C164.380354,47.1193354 164.722586,47.0314485 165.072033,47.0006485 C166.791508,46.9458576 168.615705,50.377136 168.662999,51.9284025 C168.668402,52.4112611 168.484117,52.8764688 168.150781,53.2214383 C167.817445,53.5664078 167.362437,53.7628052 166.886096,53.7673212 C164.757865,53.8358098 163.470793,50.8805271 161.818881,50.9318935 C161.105251,50.9551017 160.532592,51.5371074 160.511539,52.2605722 C160.585858,54.6850683 168.818393,54.8802607 168.997435,60.7497329 C169.105536,64.3077151 165.781443,66.8760373 161.903334,66.9993167 C160.975841,67.0071489 160.048985,66.9476399 159.129879,66.8212464 C158.194133,66.7390601 157.366488,66.6500249 157.14353,66.6568738 C156.89376,66.6717459 156.645379,66.7049356 156.400339,66.7561822 C156.168131,66.8085389 155.931922,66.8406177 155.694307,66.8520662 C155.061502,66.9457074 154.427279,66.6914113 154.028882,66.1843025 C153.062733,65.1569736 152.062803,63.0235541 152.001996,61.5852937 C151.971593,60.599058 152.282382,59.7943171 153.353254,59.7600728 C154.998409,59.7087063 156.606406,63.4105146 158.697476,63.3454504 C159.444046,63.3214794 160.143322,62.9208212 160.116296,62.0886848 C160.048734,59.8559568 152.718163,59.8217125 152.525609,53.5721287 C152.407373,49.7847097 155.400408,47.3019983 159.248114,47.1821433 C160.003744,47.1584891 160.759795,47.2124132 161.504713,47.3430914 L161.504713,47.3430914 Z" id="Path" fill="#FFFFFF"></path>
                <path d="M184.691278,49.7657161 C185.355424,49.9958671 185.939173,50.2463255 186.204832,50.290325 C186.565449,50.3419155 186.933437,50.3141511 187.281448,50.2090952 C187.633304,50.1394458 187.994383,50.1245926 188.351072,50.1650958 C190.098825,50.4629382 191.234865,54.158892 190.95872,55.6684116 C190.862543,56.1362086 190.578258,56.5478 190.168483,56.8125253 C189.758708,57.0772506 189.257057,57.1733941 188.774029,57.0797785 C186.60332,56.7074755 185.9182,53.5868991 184.229871,53.2992104 C183.50312,53.1756189 182.802274,53.6201193 182.628929,54.3145823 C182.195487,56.6837835 190.493818,58.5520678 189.448661,64.2686117 C188.815975,67.7344145 184.904504,69.538392 180.951086,68.8580928 C180.010245,68.6744855 179.083964,68.426796 178.17915,68.1168713 C177.24585,67.8427209 176.431397,67.5888779 176.200694,67.548263 C175.943869,67.510384 175.684478,67.4911512 175.424692,67.4907253 C175.177801,67.4940272 174.931065,67.4770435 174.68714,67.4399567 C174.026035,67.4010411 173.436203,67.0245965 173.138631,66.4516613 C172.373115,65.256907 171.806843,62.9892431 172.062015,61.5880298 C172.23679,60.6301957 172.722665,59.9126662 173.809768,60.1022023 C175.484115,60.389891 176.340514,64.3024574 178.472773,64.6646068 C179.234793,64.7966051 180.024777,64.5529158 180.171589,63.7406183 C180.570076,61.5677224 173.152613,60.0175879 174.264184,53.9422793 C174.938816,50.2564792 178.486755,48.4660401 182.408712,49.1395701 C183.189732,49.2719352 183.954614,49.4817552 184.691278,49.7657161 Z" id="Path" fill="#FFFFFF"></path>
                <path d="M203.104432,67.4060806 C201.559296,71.603435 204.189747,70.8586877 203.493252,72.742864 C202.604038,75.1452745 198.154585,73.4738831 196.575638,72.8732805 C190.547237,70.5875585 190.827864,69.098064 191.128777,68.2503563 C191.598742,66.9702147 193.062734,67.4438328 193.891089,66.5000286 C194.803971,65.42924 196.775119,60.2983775 196.876551,58.8363391 C197.018554,57.4635331 195.087979,57.1855399 195.679661,55.5862209 C196.609448,53.0602579 205.903936,55.370004 206.252184,55.5038526 C207.303688,55.9019663 207.036586,56.7325139 206.75934,57.4806932 L203.104432,67.4060806 Z M200.815466,52.1473419 C199.344712,51.5879234 198.015962,50.3146459 198.65836,48.5711822 C199.523908,46.223684 204.500803,47.0199114 206.289375,47.6994504 C207.692508,48.2314127 209.518272,49.4497781 208.862349,51.2309939 C207.841274,54.00063 202.796758,52.9058172 200.815466,52.1473419 Z" id="Shape" fill="#FFFFFF"></path>
                <path d="M209.515401,68.6391813 C213.227229,62.9738914 220.47196,62.9163586 225.885335,66.2126504 C231.628494,69.7119991 232.070545,76.0507613 229.498929,79.9731454 C226.099344,85.1646356 218.251178,84.8126702 213.427205,81.8717282 C208.603232,78.9307862 206.242116,73.6411517 209.515401,68.6391813 Z M222.029664,69.089291 C220.949094,68.4293558 219.714157,69.0520639 219.177381,70.009816 C218.002085,72.0843815 215.398894,77.3198674 217.581084,78.808952 C218.787955,79.6313328 219.714157,78.7784934 220.387759,77.7665928 C221.310454,76.358731 224.260971,70.4497728 222.029664,69.089291 L222.029664,69.089291 Z" id="Shape" fill="#FFFFFF"></path>
                <path d="M238.104334,92.4031509 C235.385961,94.8922505 236.729683,95.4072367 235.667765,96.3822771 C233.928831,97.9718677 230.567809,94.1953026 229.516201,93.0451669 C228.464593,91.8950312 225.869938,89.0660407 227.553886,87.5279487 C228.901044,86.2988485 228.873551,88.6883842 231.701896,86.2576496 L236.011427,82.5222835 C238.1387,80.6786331 235.898019,79.5868625 237.386079,78.227299 C238.874139,76.8677356 246.180409,82.0278968 246.695904,82.587515 C246.943828,82.8745837 247.065682,83.2492492 247.034004,83.6270751 C247.002326,84.004901 246.819781,84.354095 246.527509,84.595961 C246.359114,84.7504568 246.166663,84.8774867 245.998268,85.0285493 C245.654605,85.337541 245.396858,85.835361 245.781761,86.2576496 C246.166663,86.6799382 247.012073,86.4190119 248.115231,86.4396114 C249.218389,86.4602108 250.548364,86.7829355 252.012367,88.386259 C257.32883,94.1850029 250.737378,98.4147557 246.73027,102.59301 C244.6408,104.759385 246.201029,105.446033 244.994773,106.551537 C244.489589,107.015024 243.413924,108.202926 238.585462,102.936334 C237.661009,101.926961 235.148834,99.2902322 236.709063,97.8517042 C237.719432,96.9281624 238.083714,98.2877258 240.039155,96.7599336 C242.159555,95.0776456 247.366046,91.7577016 244.953533,89.1244058 C243.310825,87.3288208 241.516905,89.2686019 240.265973,90.4221708 L238.104334,92.4031509 Z" id="Path" fill="#FFFFFF"></path>
                <path d="M129.413536,267.751299 C129.03793,267.889396 128.689642,267.96535 128.53257,268.369284 C128.375499,268.773219 128.665739,269.032151 128.91159,269.311798 C129.976944,270.313004 131.520342,272.829828 130.499377,275.443319 C129.287196,278.550509 125.718943,281.557578 119.552182,279.092541 C118.507316,278.674797 117.564888,278.263957 116.666849,277.832403 C115.76881,277.400849 114.846869,277.034891 113.894197,276.655123 C112.84933,276.237379 111.760074,275.840349 110.70155,275.453677 C109.643025,275.067004 108.574256,274.714856 107.498658,274.283302 C106.545986,273.903534 105.685508,272.902329 106.112332,271.82517 C106.863544,269.898712 108.099627,272.653754 110.295213,267.564867 L114.126389,258.743901 C116.141001,254.124546 112.661528,255.215515 113.498104,253.068101 C113.959074,251.887369 115.437594,251.828678 116.390267,252.208445 C117.527327,252.660714 118.640485,253.178579 119.767302,253.66192 C120.894119,254.14526 121.993619,254.69765 123.134094,255.146466 C123.871647,255.439923 124.60237,255.660878 125.336508,255.881834 C126.070646,256.10279 126.818443,256.365175 127.525264,256.648274 C133.152519,258.892356 133.541783,262.172167 132.609598,264.568155 C132.049604,266.000915 130.871568,267.292125 129.413536,267.751299 Z M118.039516,270.402767 C116.632703,274.01056 117.182453,274.335088 118.135125,274.714856 C119.886813,275.405343 120.976069,274.445566 121.604355,272.829828 C122.345322,270.934442 122.444345,269.032151 120.29315,268.175948 C119.340478,267.79618 118.927311,268.20702 118.6439,268.84572 L118.039516,270.402767 Z M120.999971,262.807415 C120.525342,264.019219 120.235102,264.585418 121.187774,264.965185 C123.03507,265.700554 123.974084,264.564703 124.639931,262.855749 C125.186266,261.457513 125.4048,259.531056 123.71116,258.857831 C122.5741,258.40211 122.345322,259.386054 121.97996,260.287139 L120.999971,262.807415 Z" id="Shape" fill="#FFFFFF"></path>
                <path d="M145.533776,277.828186 C145.357174,279.118882 145.194156,281.128873 146.943202,281.364156 C149.289981,281.676746 149.374886,278.601259 149.58545,277.051752 C149.78094,275.893552 149.894423,274.72325 149.925071,273.549394 C149.884317,271.902412 148.226968,272.238531 148.396778,270.883972 C148.65489,268.98154 155.250322,269.539497 156.486541,269.694112 C157.658232,269.848726 158.055589,270.591549 157.902759,271.710824 C157.763515,272.742709 157.563139,273.727537 157.420498,274.766144 L156.540881,281.249875 C156.279373,283.185919 158.191437,282.520404 157.984268,284.069912 C157.685402,286.264767 151.833739,286.106792 150.040542,285.868147 C147.530746,285.532029 149.456395,283.821184 148.152251,283.646402 C147.79565,283.595984 147.20471,284.012772 146.359055,284.392586 C145.303903,284.894804 144.123355,285.080575 142.962848,284.927015 C136.771565,284.100163 137.950048,279.333998 138.605516,274.507333 C139.284757,269.573109 136.734206,271.435207 137.022884,269.304214 C137.304769,267.240445 145.513399,268.235356 145.788492,268.268968 C146.702071,268.389971 146.742826,268.823564 146.634147,269.613443 L145.533776,277.828186 Z" id="Path" fill="#FFFFFF"></path>
                <path d="M183.96321,279.68749 C184.183219,282.024257 185.838363,281.074295 185.994062,282.807802 C186.234379,285.349123 179.102705,286.215876 178.743921,286.250546 C177.082008,286.413496 178.066971,284.461568 177.004158,284.569045 C176.71307,284.596781 176.266282,285.113366 175.562254,285.68889 C174.669359,286.412885 173.591829,286.858223 172.458435,286.971685 C168.186877,287.391194 164.423032,283.074762 164.03717,278.962884 C163.620846,274.518173 166.744973,269.830771 171.239924,269.386994 C173.490785,269.168572 174.85484,270.042259 175.217009,270.007589 C175.707798,269.959051 175.636718,268.853073 175.599486,268.48557 C175.40317,266.405362 173.128616,267.750563 172.959379,265.944249 C172.725831,263.472269 180.984628,262.01959 181.082785,262.009189 C182.060979,261.912113 182.355452,262.591647 182.456995,263.694158 L183.96321,279.68749 Z M174.147427,272.795068 C171.964261,273.010022 171.930414,276.88961 172.079343,278.460167 C172.228272,280.030724 172.87476,282.731528 174.895457,282.533908 C177.082008,282.318953 176.567525,278.224411 176.42875,276.75093 C176.289975,275.4508 176.025965,272.611316 174.133888,272.798535 L174.147427,272.795068 Z" id="Shape" fill="#FFFFFF"></path>
                <path d="M210.24017,271.838951 C210.966604,274.098014 212.398911,272.789581 212.936883,274.469847 C213.724995,276.92535 206.878701,279.412423 206.532617,279.528182 C204.925554,280.071901 205.504645,277.914566 204.44926,278.265352 C204.164855,278.360065 203.83933,278.966925 203.270519,279.700068 C202.547163,280.62016 201.579892,281.307101 200.484714,281.678501 C196.372826,283.081646 191.698979,279.672005 190.420867,275.715138 C189.050238,271.425024 191.106182,266.082551 195.440798,264.616265 C197.613245,263.883122 199.155204,264.433857 199.501288,264.318097 C199.974155,264.156736 199.662337,263.08333 199.54926,262.729036 C198.905064,260.729555 196.94849,262.567675 196.386532,260.827776 C195.61898,258.44243 203.455554,255.116978 203.548071,255.085407 C204.493806,254.766192 204.918701,255.369544 205.261358,256.432426 L210.24017,271.838951 Z M199.02842,267.278732 C196.917651,267.980304 197.733176,271.838951 198.223176,273.343824 C198.713176,274.848696 199.936462,277.377864 201.893036,276.718386 C204.003806,276.016814 202.602337,272.080994 202.143176,270.66031 C201.742267,269.415019 200.858211,266.671872 199.031847,267.289255 L199.02842,267.278732 Z" id="Shape" fill="#FFFFFF"></path>
                <path d="M230.439939,263.796043 C231.336646,268.431676 231.742636,273.235691 226.962552,276.019132 C224.844347,277.249345 221.709403,277.644525 220.254902,275.273445 C219.816803,274.596814 219.675503,273.777528 219.862589,272.998738 C220.049675,272.219947 220.549547,271.546596 221.250459,271.129209 C223.979413,269.541617 225.073819,273.012328 226.277666,272.311313 C227.068463,271.850843 226.966083,270.902411 226.560093,270.249504 C226.069376,269.448835 224.816104,268.706584 224.021777,268.187696 L214.775811,262.21876 C213.515479,261.400909 212.053918,262.720466 211.245469,261.404345 C210.719448,260.548695 210.475855,258.998902 216.664544,255.380427 C217.780132,254.730958 220.487905,253.318619 221.486992,254.933702 C221.963588,255.703444 221.426976,256.325423 221.840026,256.995511 C222.507261,258.081397 225.017334,259.328791 225.525703,259.036701 C226.404758,258.524686 225.808131,256.194842 225.38802,255.511009 C224.597223,254.225815 223.711107,254.858103 223.11801,253.889052 C222.18953,252.377059 224.840817,250.597031 225.896389,249.985361 C226.863703,249.4218 229.123122,248.298114 229.93157,249.614236 C230.96596,251.298046 228.752436,251.579827 228.759497,253.861562 C228.78958,255.295414 228.97297,256.722319 229.3067,258.119197 L230.439939,263.796043 Z" id="Path" fill="#FFFFFF"></path>
            </g>
        </g>
    </g>
</svg>